<?xml version="1.0" encoding="UTF-8" standalone="no"?>
<!-- Created with Inkscape (http://www.inkscape.org/) -->

<svg
   width="210mm"
   height="297mm"
   viewBox="0 0 210 297"
   version="1.1"
   id="svg1"
   inkscape:version="1.3.2 (091e20e, 2023-11-25, custom)"
   sodipodi:docname="yatc-logo.svg"
   xmlns:inkscape="http://www.inkscape.org/namespaces/inkscape"
   xmlns:sodipodi="http://sodipodi.sourceforge.net/DTD/sodipodi-0.dtd"
   xmlns="http://www.w3.org/2000/svg"
   xmlns:svg="http://www.w3.org/2000/svg">
  <sodipodi:namedview
     id="namedview1"
     pagecolor="#ffffff"
     bordercolor="#000000"
     borderopacity="0.25"
     inkscape:showpageshadow="2"
     inkscape:pageopacity="0.0"
     inkscape:pagecheckerboard="0"
     inkscape:deskcolor="#d1d1d1"
     inkscape:document-units="mm"
     inkscape:zoom="1.3843855"
     inkscape:cx="391.50944"
     inkscape:cy="332.63856"
     inkscape:window-width="1920"
     inkscape:window-height="991"
     inkscape:window-x="-9"
     inkscape:window-y="-9"
     inkscape:window-maximized="1"
     inkscape:current-layer="layer1" />
  <defs
     id="defs1">
    <pattern
       id="EMFhbasepattern"
       patternUnits="userSpaceOnUse"
       width="6"
       height="6"
       x="0"
       y="0" />
  </defs>
  <g
     inkscape:label="Livello 1"
     inkscape:groupmode="layer"
     id="layer1">
    <path
       style="fill:#000000"
       d="m 86.003009,119.80892 c 0,0.32065 -0.23612,-0.9646 -0.523383,-1.431 -0.287264,-0.4664 -0.525275,-0.91955 -0.528914,-1.007 -0.01424,-0.34231 0.688799,-0.13381 1.07226,0.318 0.393963,0.46418 0.413184,0.46622 0.715337,0.0759 0.170773,-0.22058 0.349711,-0.50678 0.397641,-0.636 0.05983,-0.16129 0.160369,-0.16669 0.320754,-0.0172 0.168307,0.15685 0.08682,0.50764 -0.2915,1.25493 -0.28881,0.57047 -0.525108,1.25955 -0.525108,1.53129 0,0.29784 -0.1263,0.49407 -0.318,0.49407 -0.205313,0 -0.319087,-0.9594 -0.319087,-0.583 z m 1.909087,-0.97233 v -1.57748 l 0.745606,-0.13988 c 0.828841,-0.1555 1.162394,-0.0341 1.162394,0.4232 0,0.18452 -0.20987,0.30549 -0.53,0.30549 -0.736668,0 -0.664515,0.36076 0.106,0.53 0.788774,0.17324 0.826086,0.47933 0.06935,0.56892 -0.854159,0.10111 -0.828842,0.52672 0.04104,0.68991 1.105409,0.20738 0.805362,0.63704 -0.498052,0.71325 l -1.096336,0.0641 z m 3.321333,1.41399 c -0.07773,-0.0777 -0.141333,-0.61136 -0.141333,-1.18584 0,-0.86622 -0.07237,-1.06344 -0.424,-1.1554 -0.506372,-0.13241 -0.559479,-0.60007 -0.08866,-0.78074 0.665121,-0.25523 1.736601,-0.13571 1.868667,0.20845 0.160906,0.41931 -0.01316,0.72287 -0.414518,0.72287 -0.228956,0 -0.305488,0.29211 -0.305488,1.166 0,1.08018 -0.142978,1.37635 -0.494668,1.02466 z m 2.614667,-0.36274 c 0,-0.26993 0.137252,-0.76779 0.305005,-1.10635 0.167752,-0.33857 0.406074,-0.88366 0.529603,-1.21133 0.123528,-0.32767 0.316997,-0.53865 0.429929,-0.46885 0.348668,0.21548 1.279463,2.23647 1.279463,2.77803 0,0.5668 -0.515791,0.70762 -0.712665,0.19458 -0.129156,-0.33658 -1.195335,-0.45135 -1.195335,-0.12868 0,0.10412 -0.1431,0.24423 -0.318,0.31134 -0.226231,0.0868 -0.318,-0.0196 -0.318,-0.36874 z m 4.183466,-0.28739 -0.791466,-0.79147 v 0.72787 c 0,0.50904 -0.06702,0.66085 -0.222933,0.50494 -0.124008,-0.12401 -0.194562,-0.81971 -0.159,-1.5678 l 0.06393,-1.34485 0.769987,0.67739 c 0.423488,0.37256 0.828943,0.67739 0.901,0.67739 0.07206,0 0.13102,-0.34185 0.13102,-0.75967 0,-0.51316 0.086,-0.73121 0.265,-0.67198 0.17369,0.0575 0.28633,0.64788 0.32691,1.71366 0.0729,1.91316 -2.965061,0.83452 -1.284451,0.83452 z m 2.360038,0.47105 c 1.24452,0 -0.96625,-2.32088 0.20637,-2.79936 0.63235,-0.25802 0.72174,-0.23988 1.20654,0.24492 0.69177,0.69177 0.70663,1.78099 0.0329,2.4139 -0.57055,0.53601 -2.299654,0.14054 -1.44583,0.14054 z m 1.08005,-0.83541 c 0.38557,-0.46458 0.07,-1.17617 -0.52155,-1.17617 -0.31916,0 -0.55152,0.15782 -0.63923,0.43417 -0.14834,0.46738 0.20631,1.04983 0.63923,1.04983 0.14634,0 0.38104,-0.13852 0.52155,-0.30783 z m 1.91645,-0.0154 c 0,-1.05426 -0.0529,-1.19137 -0.53,-1.37275 -1.16625,-0.44341 -0.41649,-0.9745 1.0626,-0.75269 1.01446,0.15212 1.32514,0.67012 0.4744,0.79094 -0.43494,0.0618 -0.47484,0.17525 -0.45241,1.28675 0.0182,0.90107 -0.0509,1.219 -0.265,1.219 -0.20985,0 -0.28959,-0.32254 -0.28959,-1.17125 z m 1.82468,0.83591 c -0.16629,-0.43333 -0.1666,-2.28717 -4.7e-4,-2.72011 0.19388,-0.50523 0.50779,-0.18132 0.50779,0.52396 0,0.3969 0.10926,0.62349 0.30066,0.62349 0.62332,0 0.97134,-0.27398 0.97134,-0.76468 0,-0.27903 0.0829,-0.50732 0.18426,-0.50732 0.21353,0 0.44602,1.23385 0.4494,2.385 0.002,0.63476 -0.0772,0.795 -0.39227,0.795 -0.30659,0 -0.372,-0.11821 -0.29328,-0.53 0.0905,-0.47364 0.0311,-0.53 -0.5594,-0.53 -0.56343,0 -0.66071,0.078 -0.66071,0.53 0,0.5921 -0.30927,0.71077 -0.50732,0.19466 z m 2.83932,-1.24167 v -1.60299 h 1.07766 c 0.76735,0 1.05254,0.0763 0.9904,0.265 -0.048,0.14575 -0.3183,0.29693 -0.60067,0.33595 -0.82488,0.114 -1.00362,0.45905 -0.23779,0.45905 0.8991,0 0.92835,0.59661 0.038,0.77468 -0.91939,0.18388 -0.99919,0.49732 -0.12661,0.49732 0.4081,0 0.80489,0.10174 0.88174,0.2261 0.19031,0.30793 0.13655,0.33448 -1.01571,0.50172 l -1.007,0.14616 z m 7.05364,0.4534 c 0,-0.98065 -0.0652,-1.176 -0.424,-1.26982 -0.2332,-0.061 -0.424,-0.26291 -0.424,-0.44872 0,-0.26818 0.24044,-0.33785 1.166,-0.33785 0.87073,0 1.166,0.0769 1.166,0.30371 0,0.16704 -0.18599,0.36274 -0.4133,0.43489 -0.32636,0.10358 -0.4267,0.35951 -0.477,1.21662 -0.0907,1.54531 -0.5937,1.63102 -0.5937,0.10117 z m 1.69889,-0.0675 c 0.004,-1.74522 0.15861,-2.20091 0.74649,-2.20091 0.70845,0 1.15862,0.21473 1.15862,0.55268 0,0.17367 -0.21832,0.29532 -0.53,0.29532 -0.63199,0 -0.70891,0.41691 -0.106,0.57457 0.2332,0.061 0.424,0.19515 0.424,0.29815 0,0.103 -0.1908,0.18728 -0.424,0.18728 -0.23556,0 -0.424,0.14133 -0.424,0.318 0,0.1749 0.18517,0.318 0.41148,0.318 0.41446,0 0.78498,0.3582 0.58125,0.56193 -0.0603,0.0603 -0.4992,0.16196 -0.97523,0.22581 l -0.8655,0.11609 z m 2.54335,0.87579 c -0.44568,-0.44568 -0.11027,-1.02943 0.40467,-0.75384 0.51888,0.27769 0.86509,0.28296 0.86509,0.0132 0,-0.11438 -0.23933,-0.26803 -0.53185,-0.34145 -0.75462,-0.1894 -0.93314,-1.04783 -0.34103,-1.63994 0.35994,-0.35994 0.53151,-0.40644 0.82282,-0.22299 0.20243,0.12748 0.39962,0.39226 0.43821,0.5884 0.0569,0.28942 -0.0373,0.32967 -0.49983,0.21357 -0.53012,-0.13305 -0.55303,-0.1114 -0.32769,0.30966 0.1468,0.2743 0.44821,0.45271 0.76482,0.45271 0.68033,0 0.6961,0.61104 0.0319,1.23504 -0.56952,0.53504 -1.21305,0.5597 -1.62709,0.14566 z m 2.96576,-0.97099 c 0,-1.18981 -0.0318,-1.27619 -0.424,-1.15171 -0.34885,0.11072 -0.424,0.0381 -0.424,-0.40972 0,-0.51022 0.0649,-0.54428 1.03731,-0.54428 0.75266,0 1.07282,0.0925 1.16669,0.33713 0.17366,0.45253 -0.021,0.72287 -0.52052,0.72287 -0.35744,0 -0.41148,0.15315 -0.41148,1.166 0,0.6413 -0.0954,1.166 -0.212,1.166 -0.11804,0 -0.212,-0.5701 -0.212,-1.28629 z m 3.08602,0.81512 c 0,-1.28091 -0.17632,-2.70883 0.9116,-2.70883 0.55346,0 1.09038,0.32775 1.09038,0.6656 0,0.0862 -0.35775,0.18641 -0.795,0.2226 -0.63053,0.0522 -0.80863,0.16151 -0.86087,0.52845 -0.0836,0.58726 0.64071,1.00323 1.41061,0.81012 l 0.56326,-0.14128 -0.51396,0.54725 c -0.6311,0.67198 -1.80602,0.84148 -1.80602,0.0761 z m 2.38972,-1.11341 c 0.0527,-1.20467 0.14354,-1.59542 0.371,-1.59542 0.21961,0 0.30126,0.2833 0.30126,1.04525 0,0.92257 0.056,1.05321 0.477,1.113 0.28578,0.0406 0.50129,0.23772 0.53759,0.49175 0.0515,0.36027 -0.076,0.4328 -0.848,0.48242 l -0.90859,0.0584 z m 2.4894,1.25144 c 0,0.33648 -0.3313,-0.7378 -0.3267,-1.749 0.007,-1.51913 0.25762,-1.46053 0.51832,0.12114 0.11048,0.67031 0.24596,0.901 0.52914,0.901 0.41638,0 0.63465,-0.56106 0.6392,-1.643 0.002,-0.37895 0.0983,-0.689 0.2149,-0.689 0.11905,0 0.212,0.58971 0.212,1.34514 0,1.03391 -0.0897,1.42632 -0.3877,1.696 -0.48689,0.44064 -1.39916,-0.58906 -1.39916,0.0177 z m 2.56171,-0.0546 c -0.50999,-0.56353 -0.43628,-0.67841 0.33815,-0.52695 l 0.689,0.13475 -0.689,-0.64911 c -0.78497,-0.73952 -0.85449,-1.11151 -0.30131,-1.61213 0.4578,-0.41431 0.91335,-0.44902 1.26591,-0.0965 0.36135,0.36135 0.31677,0.54523 -0.1696,0.6996 -0.5963,0.18926 -0.52815,0.53 0.106,0.53 0.70095,0 0.72283,0.80493 0.0393,1.44704 -0.59808,0.56187 -0.82455,0.57485 -1.27848,0.0733 z m 2.61715,-0.8936 c 0,-1.09285 -0.0534,-1.27213 -0.36332,-1.219 -0.2053,0.0352 -0.39546,-0.0938 -0.43722,-0.29662 -0.12944,-0.62863 2.0294,-0.83143 2.2363,-0.21008 0.0512,0.15379 -0.10741,0.33139 -0.35343,0.39573 -0.38998,0.10198 -0.44633,0.27421 -0.44633,1.36399 0,0.96736 -0.0714,1.24728 -0.318,1.24728 -0.24759,0 -0.318,-0.2837 -0.318,-1.2813 z m 1.696,-0.29651 v -1.60219 h 0.954 c 0.70666,0 0.954,0.0824 0.954,0.318 0,0.212 -0.212,0.318 -0.636,0.318 -0.424,0 -0.636,0.106 -0.636,0.318 0,0.212 0.212,0.318 0.636,0.318 0.77154,0 0.85077,0.36898 0.0994,0.46292 -0.73854,0.0923 -0.76172,0.47591 -0.0338,0.55938 0.42385,0.0486 0.57616,0.17086 0.52818,0.424 -0.048,0.25314 -0.32669,0.37449 -0.9666,0.42089 l -0.89917,0.0652 z m 2.49325,1.0538 c -0.0551,-0.2882 -0.0541,-1.0037 0.002,-1.59 l 0.10243,-1.06599 h 0.81614 c 0.63661,0 0.89253,0.11658 1.16341,0.53 0.32249,0.49218 0.32165,0.5691 -0.0118,1.07793 -0.32746,0.49977 -0.32961,0.58042 -0.0244,0.91769 0.41423,0.45771 0.42454,0.65438 0.0343,0.65438 -0.16518,0 -0.49196,-0.26235 -0.7262,-0.583 l -0.42589,-0.583 -0.22255,0.583 c -0.27636,0.72395 -0.5759,0.74892 -0.70779,0.059 z m 1.48184,-1.64899 c -0.13356,-0.40115 -0.79509,-0.45818 -0.79509,-0.0686 0,0.19666 0.18125,0.33355 0.44166,0.33355 0.25906,0 0.40519,-0.10957 0.35343,-0.265 z m -9.57284,-3.76315 c -2.34962,-0.41331 -4.30634,-1.97986 -5.49814,-4.40183 -0.62266,-1.26537 -0.69694,-1.60587 -0.68062,-3.1202 0.0339,-3.14902 1.40486,-5.41529 4.06939,-6.72703 1.30131,-0.640634 1.57895,-0.696792 3.44491,-0.696792 1.88145,0 2.13138,0.0517 3.42556,0.708592 0.76782,0.38972 1.74596,1.06694 2.17365,1.50494 l 0.77761,0.79635 -0.55918,0.36639 c -0.30755,0.20151 -0.93749,0.70816 -1.39986,1.12589 l -0.84067,0.75949 -0.57286,-0.46397 c -1.58114,-1.28058 -3.11702,-1.57916 -4.61753,-0.89766 -1.64868,0.74879 -2.38997,2.26467 -2.00777,4.10572 0.40342,1.94327 1.2025,2.82693 3.03043,3.35117 0.81655,0.23418 2.55144,-0.33828 3.38502,-1.11696 0.70236,-0.6561 0.61907,-0.67667 2.00924,0.49618 0.37194,0.31379 0.84894,0.668 1.06,0.78712 0.34966,0.19736 0.31056,0.2918 -0.44032,1.06338 -1.01218,1.04008 -3.50834,2.31095 -4.79393,2.44074 -0.5247,0.053 -1.40892,0.0163 -1.96493,-0.0815 z m -33.721448,-0.15532 c -0.525702,-0.0545 -0.773033,-0.17283 -0.70089,-0.33537 0.06132,-0.13814 0.644174,-1.49136 1.29524,-3.00716 1.458684,-3.39608 2.258738,-5.16534 3.906528,-8.639 l 1.28221,-2.703002 1.33064,0.0029 c 0.73186,0.0016 1.53395,0.05745 1.78244,0.124134 0.33666,0.09034 0.91304,1.075598 2.26174,3.866108 2.70464,5.59601 4.81247,10.14689 4.81247,10.39028 0,0.33141 -0.58881,0.431 -2.41294,0.40812 l -1.67094,-0.021 -0.55506,-1.23028 -0.55506,-1.23028 -3.20529,-0.007 -3.20529,-0.007 -0.55165,1.272 -0.55165,1.27201 -1.225064,-0.0356 c -0.673783,-0.0196 -1.590628,-0.0735 -2.037434,-0.11983 z m 8.977118,-6.30331 c -0.10932,-0.28753 -0.37962,-0.88378 -0.60067,-1.325 -0.22105,-0.44122 -0.46496,-1.06457 -0.54203,-1.38522 -0.14436,-0.60063 -0.55604,-0.81327 -0.55604,-0.2872 0,0.16269 -0.2862,0.96836 -0.636,1.79038 -0.3498,0.82202 -0.636,1.54751 -0.636,1.6122 0,0.0647 0.71313,0.11762 1.58475,0.11762 h 1.58475 z m -15.743744,6.10064 c -0.430739,-0.11256 -0.42059,-0.0374 -0.452505,-3.35186 l -0.02449,-2.544 -1.676728,-3.074 c -0.922201,-1.6907 -1.994044,-3.54764 -2.381874,-4.12653 -0.387829,-0.57889 -0.635002,-1.121388 -0.549271,-1.205552 0.197598,-0.19399 3.521355,-0.286844 3.813117,-0.106525 0.119758,0.07401 0.756415,1.085947 1.414794,2.248737 0.658379,1.1628 1.270745,2.15972 1.360814,2.21538 0.09007,0.0557 0.783232,-0.91865 1.540363,-2.16515 l 1.376602,-2.266362 1.473091,-0.06525 c 0.8102,-0.03589 1.779957,-0.0083 2.155014,0.06128 l 0.681922,0.126528 -0.952109,1.390694 c -0.52366,0.76489 -1.1288,1.73901 -1.344755,2.16472 -0.215956,0.42572 -0.976205,1.82343 -1.689443,3.10603 l -1.296796,2.332 -0.0014,2.36986 c -0.0017,2.87756 -0.107327,3.04758 -1.871513,3.01155 -0.662122,-0.0135 -1.370807,-0.0682 -1.574857,-0.12155 z m 25.734804,-0.13594 c -0.15306,-0.18443 -0.25378,-2.07431 -0.29095,-5.459 l -0.0568,-5.17692 -2.18645,-0.024 c -1.20254,-0.0132 -2.25462,-0.10863 -2.33795,-0.212 -0.0833,-0.10338 -0.11745,-0.92731 -0.0758,-1.83096 l 0.0757,-1.643002 h 6.44925 6.44926 v 1.802002 1.802 l -0.583,0.0354 c -0.32065,0.0195 -1.27465,0.009 -2.12,-0.0231 l -1.537,-0.0585 v 5.28075 c 0,3.82457 -0.0702,5.35089 -0.2544,5.53514 -0.36029,0.36028 -3.22847,0.3378 -3.5318,-0.0277 z m -2.6301,-17.544589 c -2.46148,-0.579918 -4.07958,-2.434308 -4.48538,-5.140368 -0.3691,-2.461337 1.50515,-5.25142 4.01848,-5.982065 3.78918,-1.101543 7.51077,1.50464 7.51712,5.264145 0.004,2.406189 -1.97154,5.07827 -4.25627,5.756763 -1.23233,0.365963 -1.61284,0.37979 -2.79395,0.101525 z m 15.61856,-0.06751 c -1.44246,-0.350178 -2.40983,-0.97871 -3.19821,-2.077972 -2.25239,-3.14058 -1.54765,-6.773086 1.65857,-8.548975 1.00945,-0.559124 1.33524,-0.628769 2.93738,-0.627941 1.57584,8.14e-4 1.92473,0.07296 2.77992,0.574897 1.79966,1.056263 2.79715,2.560682 3.0721,4.633366 0.12152,0.916072 0.0511,1.229765 -0.54999,2.450808 -0.86406,1.755148 -2.03267,2.902779 -3.52405,3.460774 -1.30848,0.489568 -1.65471,0.504291 -3.17572,0.135043 z m -36.285264,-1.380074 -0.901,-0.421015 -0.04607,-4.303365 c -0.02534,-2.366851 -0.0144,-6.545265 0.02429,-9.285365 l 0.07036,-4.982 -0.678672,-1.696 c -0.37327,-0.9328 -1.252656,-2.7931 -1.954191,-4.134 -0.701535,-1.3409 -1.446343,-2.869004 -1.655129,-3.395787 -0.208786,-0.526783 -0.926113,-1.85484 -1.594061,-2.951239 -1.665142,-2.733237 -1.874276,-3.275104 -1.59298,-4.127437 0.258207,-0.782374 1.277613,-1.825478 2.27492,-2.327803 1.282679,-0.646062 3.879528,-0.289217 3.879528,0.533105 0,0.118138 0.954,2.175968 2.12,4.572956 1.166,2.396987 2.12,4.429738 2.12,4.517223 0,0.08749 0.13117,0.267927 0.291489,0.40098 0.234526,0.19464 0.456739,-0.0385 1.137118,-1.193042 0.465096,-0.789226 1.014947,-1.816556 1.221892,-2.282956 1.292965,-2.914003 2.87692,-5.994129 3.25971,-6.338762 0.61922,-0.557485 3.2217,-0.727438 4.2919,-0.280279 0.93047,0.388774 1.86336,1.557035 2.01097,2.518334 0.1144,0.745036 0.12492,0.725884 -1.75084,3.188222 -0.48387,0.635178 -1.02538,1.577333 -1.20336,2.093677 -0.36392,1.055766 -0.7939,2.023247 -1.45366,3.270808 -1.49641,2.829604 -2.032,3.886461 -2.25618,4.452 -0.13866,0.3498 -0.4813,1.060211 -0.76143,1.578692 l -0.509307,0.942691 0.01685,9.632519 0.01686,9.632519 -0.619006,0.332767 c -0.410017,0.220418 -1.334758,0.356536 -2.739005,0.40317 -1.76993,0.05878 -2.26878,8.81e-4 -3.021,-0.350613 z M 113.0009,82.108132 c -4.46117,-2.223097 -4.52079,-8.453062 -0.10159,-10.615178 2.89772,-1.417721 6.47579,-0.216439 7.7177,2.591095 1.09152,2.467558 0.5758,4.856587 -1.48547,6.881399 -1.83835,1.805835 -3.9937,2.207567 -6.13064,1.142684 z m 15.75002,-0.0039 c -1.39367,-0.711047 -2.14838,-1.444607 -2.79948,-2.721018 -1.49969,-2.940006 -0.34688,-6.453348 2.6136,-7.965265 1.39771,-0.71381 3.78659,-0.739252 5.08657,-0.05417 1.40647,0.741204 2.14187,1.480157 2.75565,2.768957 1.11442,2.340025 0.73537,4.331372 -1.26695,6.655923 -1.6226,1.883725 -4.2254,2.419641 -6.38939,1.315573 z M 113.44965,68.104753 c -0.48689,-0.172527 -1.31022,-0.68775 -1.82962,-1.144942 -1.99359,-1.754824 -2.51349,-4.457715 -1.31685,-6.846078 1.10521,-2.205882 2.73051,-3.187961 5.30374,-3.204754 1.60129,-0.01045 1.76239,0.03211 2.88504,0.762136 1.89189,1.230247 2.73479,2.782914 2.73088,5.03045 -0.003,1.611631 -0.70377,3.060636 -2.07857,4.296706 -1.57939,1.420005 -3.66575,1.825391 -5.69462,1.106482 z m 15.01417,-0.306868 c -2.05277,-1.025781 -3.21061,-2.904371 -3.19012,-5.175974 0.0203,-2.251699 1.06106,-4.040609 2.96008,-5.088 1.02684,-0.566343 1.3505,-0.636 2.95514,-0.636 1.58092,0 1.92279,0.07101 2.78665,0.578842 2.74717,1.614959 3.82271,4.983676 2.41082,7.551007 -1.74465,3.172419 -4.9057,4.277676 -7.92257,2.770125 z M 110.4713,119.86259 c -0.0551,-0.2882 -0.0541,-1.0037 0.002,-1.59 l 0.10243,-1.06599 h 0.81614 c 0.63661,0 0.89253,0.11658 1.16341,0.53 0.32249,0.49218 0.32165,0.5691 -0.0118,1.07793 -0.32746,0.49977 -0.32961,0.58042 -0.0244,0.91769 0.41423,0.45771 0.42454,0.65438 0.0343,0.65438 -0.16518,0 -0.49196,-0.26235 -0.7262,-0.583 l -0.42589,-0.583 -0.22255,0.583 c -0.27635,0.72394 -0.5759,0.74892 -0.70779,0.059 z m 1.48184,-1.64899 c -0.13356,-0.40115 -0.79509,-0.45818 -0.79509,-0.0686 0,0.19666 0.18125,0.33355 0.44166,0.33355 0.25906,0 0.40519,-0.10957 0.35343,-0.265 z"
       id="path1"
       sodipodi:nodetypes="ssssssssssssccsssssssccsssssssssssssssssccssscsssscscsssssssssssscssssssssssscscsssccssssssssccssssssssssssssssssscssssssscssssssssssssssssssssscssscsssssccscsscssssscscssssssccssssssssccssssssssscccccsscssscscccssccsscsssscsscssssssssssssssscsssscccccccccssssssssscscscssssscscsscssscssccsccsssccccccccscssssscsssssssscssccsscsssssssssssssssssssscccssscssssssssssssssssscssssssssscccsscssscscccsscc"
       inkscape:export-filename="logo.png"
       inkscape:export-xdpi="96"
       inkscape:export-ydpi="96" />
  </g>
</svg>
